<svg width="128" height="128" viewBox="0 0 128 128" fill="none" xmlns="http://www.w3.org/2000/svg">
<path d="M44.089 2.72047C51.553 0.583473 55.6782 0.466832 62.2082 2.20582C74.2191 5.4038 82.7459 12.1905 87.884 22.6404C91.0129 29.0033 91.1708 29.8684 91.2658 41.325C91.3408 50.443 91.761 54.0616 93.009 56.3386C95.6299 61.1216 95.1939 70.3841 92.05 76.6931C88.817 83.1811 81.4462 90.8822 75.5832 93.8992C67.8452 97.8802 57.2156 96.5353 54.8166 91.2703C53.9186 89.3004 52.9684 88.8387 49.8127 88.8386C44.9588 88.8386 38.2626 86.5295 34.2345 83.4656C32.5275 82.1676 28.9462 80.8214 26.1652 80.4324C17.3933 79.2054 11.6661 76.8064 7.16716 72.4744C1.22626 66.7534 -0.252861 61.5902 2.00212 54.4392C2.92415 51.5122 5.01849 47.1432 6.65447 44.7283C8.29042 42.3143 9.63763 39.5364 9.64763 38.5554C9.68165 35.2084 14.4507 27.345 19.0617 23.033C21.5928 20.6658 23.664 18.3057 23.6652 17.7869C23.6652 16.2119 30.6317 9.02264 34.4357 6.67164C36.4038 5.45568 40.7472 3.67746 44.089 2.72047Z" fill="#FF0000"/>
<path fill-rule="evenodd" clip-rule="evenodd" d="M43.4241 1.8819C40.0821 2.8389 35.7381 4.61689 33.7701 5.83289C29.9661 8.18389 23.0001 15.3729 23.0001 16.9479C23.0001 17.4659 20.9281 19.8269 18.3961 22.1949C13.7851 26.5069 9.01612 34.3699 8.98212 37.7169C8.97212 38.6979 7.62512 41.4759 5.98912 43.8899C4.35312 46.3049 2.25912 50.6739 1.33712 53.6009C-0.917883 60.7519 0.561117 65.9149 6.50212 71.6359C11.0011 75.9679 16.7281 78.3669 25.5001 79.5939C28.2811 79.9829 31.8621 81.3289 33.5691 82.6269C37.5971 85.6909 44.2931 87.9999 49.1471 87.9999C52.3031 87.9999 53.2531 88.4619 54.1511 90.4319C56.5501 95.6969 67.1801 97.0419 74.9181 93.0609C80.7811 90.0439 88.1521 82.3429 91.3851 75.8549C94.5291 69.5459 94.9651 60.2829 92.3441 55.4999C91.0961 53.2229 90.6751 49.6049 90.6001 40.4869C90.5051 29.0299 90.3481 28.1649 87.2191 21.8019C82.0811 11.3519 73.5541 4.56489 61.5431 1.36689C55.0131 -0.37211 50.8881 -0.255103 43.4241 1.8819ZM65.0001 5.5919C74.4241 8.5559 84.2331 18.9799 87.0131 28.9859C87.5501 30.9189 87.9911 36.2269 87.9941 40.7819C88.0011 49.9269 85.9091 57.6589 80.9251 66.9209C79.3201 69.9019 78.2071 72.5409 78.4521 72.7849C79.1211 73.4539 86.6801 61.4119 87.4051 58.5209C88.3391 54.7989 89.6231 55.4469 90.8331 60.2499C92.6971 67.6559 89.9601 74.9209 82.1681 83.2519C74.7011 91.2349 66.9231 94.2479 60.6041 91.6079C56.1341 89.7399 56.0181 88.3709 60.2501 87.4569C64.6711 86.5029 70.0941 83.6609 72.4361 81.0719C74.0841 79.2499 73.3391 79.4199 67.4361 82.2149C61.3771 85.0849 59.4891 85.4979 52.5001 85.4829C46.2601 85.4689 43.6201 84.9939 40.5001 83.3239C31.7321 78.6309 26.0381 69.0639 25.9371 58.8549C25.8841 53.5609 25.7051 52.9169 24.8651 54.9999C24.3111 56.3749 24.0141 59.1879 24.2051 61.2499C24.4271 63.6459 24.1301 64.9999 23.3821 64.9999C21.3411 64.9999 16.0001 59.2829 16.0001 57.0989C16.0001 55.9439 15.5611 54.9999 15.0251 54.9999C13.4151 54.9999 15.0981 61.3109 17.3841 63.8449C18.5481 65.1349 20.7361 66.8329 22.2471 67.6189C24.7051 68.8979 28.6751 75.6579 27.6001 76.7339C27.3651 76.9679 24.3221 76.4309 20.8371 75.5389C5.33912 71.5749 -0.143883 61.3839 6.57712 49.0349C10.6291 41.5909 17.8781 36.0209 26.9941 33.3459L31.5001 32.0239L26.3581 32.3549C23.5301 32.5369 19.3531 33.6559 17.0771 34.8429C11.8631 37.5609 11.9061 37.5689 13.1111 34.1109C16.0681 25.6299 27.3551 17.8559 38.0001 16.9699L44.5001 16.4279L40.5001 15.2529C37.8171 14.4649 35.1921 14.3759 32.5281 14.9839C30.3441 15.4819 28.3191 15.6449 28.0281 15.3469C27.2251 14.5219 33.9631 9.19689 38.7321 6.88789C46.6721 3.04389 55.5101 2.6079 65.0001 5.5919ZM75.0001 19.0209C75.0001 19.5829 76.1561 21.7899 77.5691 23.9239C80.5931 28.4939 83.0001 35.9369 83.0001 40.7179C83.0001 42.7299 83.4081 43.8659 84.0001 43.4999C86.7941 41.7729 83.9391 25.7339 79.9301 20.6379C77.8651 18.0129 75.0001 17.0739 75.0001 19.0209ZM66.6711 25.6619C66.3071 26.0259 67.0671 27.7129 68.3601 29.4119C72.9131 35.3919 75.1211 41.0519 75.7281 48.2999C76.3971 56.2759 77.8101 55.0619 77.9301 46.4089C78.0821 35.3849 70.6481 21.6849 66.6711 25.6619ZM58.4871 38.0199C58.1401 38.5819 59.0031 40.4029 60.4041 42.0679C63.2541 45.4549 65.9641 53.5189 66.0701 58.9319C66.1091 60.8939 66.5031 63.3999 66.9451 64.4999C68.1101 67.3939 69.4161 56.2619 68.5731 50.6359C67.4081 42.8709 60.6861 34.4629 58.4871 38.0199Z" fill="black"/>
</svg>
